<?xml version="1.0" encoding="utf-8"?>
<!-- Generator: Adobe Illustrator 22.0.1, SVG Export Plug-In . SVG Version: 6.00 Build 0)  -->
<svg version="1.1" id="Layer_1" xmlns="http://www.w3.org/2000/svg" xmlns:xlink="http://www.w3.org/1999/xlink" x="0px" y="0px"
	 viewBox="0 0 48 48" style="enable-background:new 0 0 48 48;" xml:space="preserve">
<style type="text/css">
	.st0{fill:#355401;}
</style>
<path class="st0" d="M22.2,44c-1.4,0-2.7-0.1-3.9-0.4c-1.2-0.3-2.3-0.7-3.4-1.2c1.1-4,2.5-7.8,4.4-11.5s4.3-6.8,7.5-9.3
	c-3.7,1.8-7,4.3-9.7,7.5s-4.6,6.8-5.6,10.9c-0.1-0.1-0.3-0.3-0.4-0.3c-0.1-0.1-0.2-0.2-0.4-0.3C9.1,37.8,8,36,7.2,34.1
	C6.4,32.2,6,30.1,6,28c0-2.3,0.4-4.5,1.3-6.6s2.1-4,3.8-5.6c2.6-2.6,5.9-4.3,10-5.1s10.2-0.9,18.4-0.3c0.6,8,0.5,14.1-0.3,18.3
	c-0.8,4.2-2.6,7.6-5.2,10.3c-1.6,1.7-3.4,2.9-5.5,3.8C26.5,43.6,24.4,44,22.2,44z"/>
</svg>
